# xmcd CD database file
#
# Track frame offsets:
#	150
#	33447
#	59822
#	105300
#	150582
#	187172
#
# Disc length: 3019 seconds
#
# Revision: 0
# Processed by: cddbd v1.5.2PL0 Copyright (c) Steve Scherf et al.
# Submitted via: CDex 1.70beta2
#
DISCID=4c0bc906
DTITLE=Pete Christlieb - Dino's '83
DYEAR=1983
DGENRE=Jazz
TTITLE0=Like Almost Like
TTITLE1=Dennis
TTITLE2=Hi Fly
TTITLE3=So's Your Mother
TTITLE4=Autumn Breeze
TTITLE5=Speak Low
EXTD=YEAR: 1983
EXTT0=
EXTT1=
EXTT2=
EXTT3=
EXTT4=
EXTT5=
PLAYORDER=
